<svg xmlns="http://www.w3.org/2000/svg" viewBox="0 0 32 32"><rect width="32" height="32" rx="7" fill="#050910"/><circle cx="16" cy="16" r="10" fill="#0b1226"/><path d="M10 17.5c2.2-4.8 5.6-7.2 10.4-7.2 1.1 0 2.2.1 3.1.4-1.3 0-2.4.3-3.4.8 1.7.2 2.8.8 3.5 1.8-.8-.2-1.6-.3-2.4-.3-4.5 0-7.8 2.4-10 7.2-.4-.6-.8-1.5-1.2-2.7Z" fill="#4adcff"/><path d="M8.7 19.9c2.7-6.1 7.1-9.3 13.1-9.3 1.2 0 2.4.1 3.5.4-1.3.1-2.5.5-3.5 1.1 1.7.2 3 .8 3.8 1.9-1-.2-2-.3-3.1-.3-5.3 0-9.2 2.8-11.7 8.4-.8-.6-1.5-1.4-2.1-2.2Z" fill="#6aa8ff" opacity=".95"/></svg>